Coordinates
version=1
nRows=24
nColumns=38
inDegrees=no

Units are S.I. units (second, meters, Newtons, ...)
If the header above contains a line with 'inDegrees', this indicates whether rotational values are in degrees (yes) or radians (no).

endheader
time	pelvis_tilt	pelvis_list	pelvis_rotation	pelvis_tx	pelvis_ty	pelvis_tz	hip_flexion_r	hip_adduction_r	hip_rotation_r	knee_angle_r	ankle_angle_r	subtalar_angle_r	mtp_angle_r	hip_flexion_l	hip_adduction_l	hip_rotation_l	knee_angle_l	ankle_angle_l	subtalar_angle_l	mtp_angle_l	lumbar_extension	lumbar_bending	lumbar_rotation	arm_flex_r	arm_add_r	arm_rot_r	elbow_flex_r	pro_sup_r	wrist_flex_r	wrist_dev_r	arm_flex_l	arm_add_l	arm_rot_l	elbow_flex_l	pro_sup_l	wrist_flex_l	wrist_dev_l
10	0.630957	1.55541	1.18778	0.565945	0.250731	0.936973	-0.0737605	0.000449436	-0.15906	0	-0.0268234	0	0	-0.0718029	-0.0471018	-0.198053	0	-0.0319972	0	0	-0.234888	0.0497965	-0.0962507	0.150691	-0.205923	0.437462	0.278726	0.878857	0	0	0.0719404	-0.371685	0.469905	0.771314	1.08831	0	0
10.01	0.657153	1.55668	1.16123	0.565584	0.25227	0.936986	-0.0761925	0.000655098	-0.158945	0	-0.025109	0	0	-0.0741443	-0.0470884	-0.198777	0	-0.0296958	0	0	-0.232325	0.0482588	-0.0975696	0.147289	-0.209621	0.472314	0.286405	0.826529	0	0	0.0720485	-0.371024	0.468407	0.768685	1.08673	0	0
10.02	0.684506	1.55774	1.13339	0.56552	0.253452	0.937098	-0.0789069	0.000845191	-0.158789	0	-0.0240625	0	0	-0.0766057	-0.0469653	-0.198956	0	-0.0281176	0	0	-0.229507	0.0466358	-0.0978983	0.144371	-0.208574	0.472415	0.286212	0.825144	0	0	0.0724538	-0.3705	0.469291	0.76649	1.0836	0	0
10.03	0.308678	1.55746	1.50809	0.565324	0.254898	0.93655	-0.0780109	-0.00211866	-0.160618	0	-0.0214733	0	0	-0.0763531	-0.0415969	-0.198996	0	-0.0266104	0	0	-0.223176	0.0396947	-0.0980942	0.141293	-0.203105	0.445981	0.279671	0.865052	0	0	0.0716531	-0.371012	0.469189	0.765641	1.08969	0	0
10.04	0.724785	1.55938	1.0916	0.565248	0.255778	0.937341	-0.0836851	0.00093309	-0.157675	0	-0.023345	0	0	-0.0810608	-0.0465294	-0.198927	0	-0.0261086	0	0	-0.223503	0.0435937	-0.0971069	0.139589	-0.203291	0.449844	0.279221	0.860457	0	0	0.0734369	-0.368572	0.470231	0.761722	1.08805	0	0
10.05	0.756065	1.56013	1.05918	0.565111	0.256905	0.937452	-0.0858974	0.000963093	-0.156806	0	-0.0233697	0	0	-0.0830905	-0.0463239	-0.199437	0	-0.0247041	0	0	-0.220723	0.0424934	-0.096971	0.136912	-0.205246	0.475622	0.283071	0.823004	0	0	0.0740759	-0.368876	0.47486	0.760871	1.0758	0	0
10.06	0.773324	1.56024	1.04066	0.56499	0.257957	0.937497	-0.0874006	0.00109565	-0.156205	0	-0.0232648	0	0	-0.0844035	-0.0462995	-0.19965	0	-0.0234329	0	0	-0.217699	0.0414996	-0.0958069	0.135443	-0.201416	0.456895	0.277614	0.850935	0	0	0.0748608	-0.367549	0.474793	0.758275	1.08422	0	0
10.07	0.810407	1.56059	1.00198	0.564889	0.258985	0.937524	-0.0892536	0.00126429	-0.155367	0	-0.023308	0	0	-0.0860757	-0.0463681	-0.20033	0	-0.0219815	0	0	-0.214891	0.0406816	-0.0946005	0.132762	-0.202667	0.476035	0.280124	0.825351	0	0	0.0760759	-0.368256	0.482116	0.757559	1.07433	0	0
10.08	0.844556	1.56056	0.966366	0.56466	0.260128	0.937451	-0.0905832	0.00168522	-0.155551	0	-0.0224904	0	0	-0.0870401	-0.0466482	-0.201094	0	-0.0200144	0	0	-0.212603	0.0401534	-0.0932368	0.131782	-0.199957	0.465324	0.27658	0.842435	0	0	0.0772372	-0.36765	0.482992	0.756744	1.08105	0	0
10.09	0.928899	1.5614	0.88054	0.564659	0.260855	0.937575	-0.0937526	0.0018162	-0.154784	0	-0.0219426	0	0	-0.0898011	-0.0467302	-0.201344	0	-0.0190532	0	0	-0.210508	0.039484	-0.092002	0.129317	-0.199783	0.473729	0.276779	0.830355	0	0	0.0778061	-0.368475	0.489624	0.757782	1.07531	0	0
10.1	0.847258	1.56117	0.960542	0.564586	0.26176	0.937406	-0.0934605	0.00102345	-0.153297	0	-0.0202028	0	0	-0.0899851	-0.046113	-0.202529	0	-0.0172742	0	0	-0.207413	0.0381322	-0.0905117	0.127892	-0.198025	0.470221	0.275059	0.833393	0	0	0.0788541	-0.368555	0.492225	0.758725	1.07681	0	0
10.11	0.815509	1.56133	0.990881	0.564466	0.262561	0.937318	-0.0943048	0.000382226	-0.151412	0	-0.0193025	0	0	-0.091377	-0.0457083	-0.20269	0	-0.0166041	0	0	-0.204196	0.0370473	-0.0897185	0.1255	-0.19721	0.473277	0.274736	0.829315	0	0	0.0783709	-0.368156	0.493332	0.758976	1.07746	0	0
10.12	0.817461	1.56155	0.987457	0.564307	0.263359	0.937226	-0.0952144	9.01031e-05	-0.149937	0	-0.0182454	0	0	-0.0928321	-0.0455248	-0.203603	0	-0.0154769	0	0	-0.201966	0.0361891	-0.0883331	0.123611	-0.195045	0.460555	0.273426	0.840292	0	0	0.0790339	-0.36828	0.496399	0.759581	1.08142	0	0
10.13	0.825767	1.56165	0.977632	0.564035	0.264311	0.93707	-0.0957242	1.2406e-05	-0.148921	0	-0.0168613	0	0	-0.0939684	-0.0454435	-0.205094	0	-0.0140543	0	0	-0.19999	0.0356598	-0.0877942	0.12205	-0.196144	0.472698	0.276666	0.82311	0	0	0.0789438	-0.368149	0.496707	0.760888	1.07849	0	0
10.14	0.864517	1.56205	0.937343	0.564101	0.264939	0.937035	-0.0969403	-0.000196479	-0.14742	0	-0.0163079	0	0	-0.0959029	-0.0452498	-0.206556	0	-0.0132028	0	0	-0.198432	0.0350926	-0.0869601	0.120298	-0.196072	0.471974	0.278245	0.821235	0	0	0.0786268	-0.367766	0.4967	0.761956	1.07985	0	0
10.15	0.384794	1.56928	1.41395	0.563822	0.266554	0.937083	-0.105934	-0.00434518	-0.144996	0	-0.0183268	0	0	-0.107176	-0.0392267	-0.204543	0	-0.0170251	0	0	-0.195741	0.0283342	-0.0868383	0.11331	-0.195081	0.469834	0.278256	0.819928	0	0	0.0712075	-0.367907	0.495207	0.764119	1.08121	0	0
10.16	1.04285	1.56325	0.756434	0.563741	0.266239	0.936999	-0.100006	-0.000214726	-0.144481	0	-0.0153868	0	0	-0.100351	-0.045098	-0.209745	0	-0.0117502	0	0	-0.197008	0.0343299	-0.0859662	0.119146	-0.192735	0.44361	0.275017	0.857841	0	0	0.0779434	-0.366595	0.494009	0.764133	1.08448	0	0
10.17	1.16514	1.56357	0.633434	0.563637	0.266751	0.937002	-0.101598	6.98298e-05	-0.14383	0	-0.0145507	0	0	-0.102417	-0.0452251	-0.211018	0	-0.0112889	0	0	-0.196088	0.0343379	-0.0871215	0.118139	-0.195959	0.469588	0.280363	0.819558	0	0	0.0766789	-0.366258	0.492213	0.765179	1.08295	0	0
10.18	1.33477	1.5639	0.463326	0.563405	0.267034	0.937104	-0.103831	0.000346473	-0.143113	0	-0.0146219	0	0	-0.105005	-0.0454453	-0.211764	0	-0.0114639	0	0	-0.195388	0.0343521	-0.0882237	0.117862	-0.195779	0.469243	0.279678	0.819973	0	0	0.0750502	-0.365483	0.489442	0.765813	1.08339	0	0
10.19	1.42737	1.56381	0.37044	0.563101	0.267725	0.937057	-0.104688	0.000642135	-0.143184	0	-0.0140314	0	0	-0.106064	-0.0456917	-0.21312	0	-0.010661	0	0	-0.195229	0.0343379	-0.0886897	0.119836	-0.191051	0.433599	0.271365	0.874452	0	0	0.075341	-0.364955	0.488304	0.766119	1.08054	0	0
10.2	1.51459	1.56387	0.283117	0.56291	0.268129	0.937099	-0.105854	0.000660892	-0.14309	0	-0.0134947	0	0	-0.10736	-0.0457375	-0.213576	0	-0.0104116	0	0	-0.194266	0.034379	-0.0909951	0.119138	-0.195464	0.469074	0.278266	0.822441	0	0	0.0735748	-0.36434	0.484805	0.766284	1.08379	0	0
10.21	1.54349	1.56386	0.254126	0.562784	0.268385	0.937121	-0.106469	0.000591825	-0.142967	0	-0.0125969	0	0	-0.108139	-0.0457511	-0.213768	0	-0.00988531	0	0	-0.193217	0.0341793	-0.0925775	0.119505	-0.195421	0.468593	0.277659	0.824112	0	0	0.0726043	-0.363851	0.482845	0.76607	1.08326	0	0
10.22	1.6464	1.56371	0.151268	0.562751	0.268707	0.937182	-0.108	0.000824162	-0.143087	0	-0.0120477	0	0	-0.109582	-0.0460413	-0.212928	0	-0.00978971	0	0	-0.192609	0.0340186	-0.0930589	0.120633	-0.189845	0.421425	0.267697	0.893072	0	0	0.0726742	-0.363874	0.485376	0.765549	1.07371	0	0
10.23	1.76108	1.56314	0.0368881	0.562573	0.26919	0.937178	-0.109564	0.00175015	-0.144903	0	-0.0106624	0	0	-0.110342	-0.0467674	-0.212559	0	-0.00854946	0	0	-0.192879	0.0345877	-0.0946673	0.121742	-0.189795	0.417022	0.26677	0.899661	0	0	0.0729599	-0.363996	0.485833	0.765144	1.07155	0	0
